<svg id="visual" viewBox="0 0 900 50" width="900" height="50" xmlns="http://www.w3.org/2000/svg" xmlns:xlink="http://www.w3.org/1999/xlink" version="1.1"><rect x="0" y="0" width="900" height="50" fill="#FFFFFF"></rect><path d="M0 25L21.5 25.5C43 26 86 27 128.8 26.2C171.7 25.3 214.3 22.7 257.2 23.3C300 24 343 28 385.8 30.3C428.7 32.7 471.3 33.3 514.2 30.8C557 28.3 600 22.7 642.8 19C685.7 15.3 728.3 13.7 771.2 16.3C814 19 857 26 878.5 29.5L900 33L900 51L878.5 51C857 51 814 51 771.2 51C728.3 51 685.7 51 642.8 51C600 51 557 51 514.2 51C471.3 51 428.7 51 385.8 51C343 51 300 51 257.2 51C214.3 51 171.7 51 128.8 51C86 51 43 51 21.5 51L0 51Z" fill="#000000" stroke-linecap="round" stroke-linejoin="miter"></path></svg>